# Blender v2.79 (sub 0) OBJ File: 'Building-1-002.blend'
# www.blender.org
mtllib Building-1.mtl
o Cube
v 9.000001 0.000000 -8.999993
v 9.000001 0.000000 7.999997
v -8.000000 0.000000 7.999996
v -7.999997 0.000000 -8.999996
v 9.000000 1.000000 -8.999992
v 9.000000 1.000000 7.999997
v -8.000000 1.000000 7.999997
v -7.999997 1.000000 -8.999995
v -8.000000 3.000000 7.999996
v -7.999997 3.000000 -8.999995
v -8.000000 4.000000 7.999996
v -7.999997 4.000000 -8.999995
v -8.000000 6.000000 7.999996
v -8.000000 7.000000 7.999996
v 0.000002 0.000000 -8.999995
v 0.000000 0.000000 7.999997
v 0.000001 1.000000 -8.999994
v -0.000001 1.000000 7.999997
v 0.000000 3.000000 7.999997
v 0.000000 4.000000 7.999997
v -3.999998 0.000000 -8.999995
v -4.000000 0.000000 7.999997
v -3.999999 1.000000 -8.999995
v -4.000001 1.000000 7.999997
v -3.999998 3.000000 -8.999995
v -4.000000 3.000000 7.999997
v -3.999998 4.000000 -8.999995
v -4.000000 4.000000 7.999997
v -4.000000 6.000000 7.999997
v -4.000000 7.000000 7.999997
v 5.000001 0.000000 -8.999994
v 5.000000 0.000000 7.999997
v 5.000000 1.000000 -8.999993
v 5.000000 1.000000 7.999997
v 5.000000 3.000000 7.999997
v 5.000000 1.000000 6.999999
v -6.999997 0.000000 -8.999996
v -7.000000 0.000000 7.999997
v -6.999998 1.000000 -8.999995
v -7.000000 1.000000 7.999997
v -6.999997 3.000000 -8.999995
v -7.000000 3.000000 7.999997
v -6.999997 4.000000 -8.999995
v -7.000000 4.000000 7.999997
v -7.000000 6.000000 7.999997
v -7.000000 7.000000 7.999998
v 8.000000 0.000000 -8.999993
v 8.000000 0.000000 7.999997
v 8.000000 1.000000 -8.999993
v 8.000000 1.000000 7.999997
v -2.999998 0.000000 -8.999995
v -3.000000 0.000000 7.999997
v -2.999999 1.000000 -8.999995
v -3.000001 1.000000 7.999997
v -2.999999 3.000000 -8.999995
v -3.000000 3.000000 7.999997
v -2.999998 4.000000 -8.999995
v -3.000000 4.000000 7.999997
v -3.000000 6.000000 7.999997
v -3.000000 7.000000 7.999997
v 4.000001 0.000000 -8.999995
v 4.000000 0.000000 7.999997
v 4.000000 1.000000 -8.999993
v 3.999999 1.000000 7.999997
v 3.999999 3.000000 7.999997
v 3.999999 1.000000 6.999999
v 1.000001 0.000000 -8.999995
v 1.000000 0.000000 7.999997
v 1.000000 1.000000 -8.999993
v 1.000000 1.000000 8.000000
v 1.000000 3.000000 7.999997
v 1.000000 4.000000 7.999997
v 0.000000 4.000000 6.999998
v 0.000000 3.000000 6.999998
v -0.000000 1.000000 6.999998
v -4.000000 7.000000 6.999998
v -4.000000 6.000000 6.999998
v -4.000000 4.000000 6.999998
v -4.000000 3.000000 6.999998
v -4.000001 1.000000 6.999998
v 8.000003 1.000000 6.999998
v 5.000000 3.000000 6.999999
v -7.000001 1.000000 6.999998
v -7.000000 3.000000 6.999998
v -7.000000 4.000000 6.999998
v -7.000001 6.000000 6.999998
v -7.000000 7.000000 6.999998
v -3.000000 1.000000 6.999998
v -3.000000 3.000000 6.999998
v -3.000000 4.000000 6.999998
v -3.000000 6.000000 6.999998
v 3.999999 3.000000 6.999999
v 1.000000 1.000000 6.999998
v 1.000000 3.000000 6.999998
v 9.000001 0.000000 0.000000
v -7.999998 0.000000 -0.000002
v -7.999999 1.000000 -0.000002
v 9.000000 1.000000 0.000001
v -7.999998 3.000000 -0.000002
v -7.999998 4.000000 -0.000002
v -7.999998 6.000000 -0.000001
v -7.999998 7.000000 -0.000001
v 0.000001 0.000000 -0.000001
v -3.999999 0.000000 -0.000002
v 5.000000 0.000000 0.000000
v -6.999998 0.000000 -0.000002
v 8.000000 0.000000 0.000000
v -2.999999 0.000000 -0.000001
v 4.000000 0.000000 -0.000001
v 1.000000 0.000000 -0.000001
v 9.000001 0.000000 6.999998
v 9.000000 1.000000 6.999999
v -8.000000 0.000000 6.999997
v -8.000000 1.000000 6.999998
v -8.000000 3.000000 6.999997
v -8.000000 4.000000 6.999997
v -8.000000 6.000000 6.999997
v -8.000000 7.000000 6.999997
v 0.000000 0.000000 6.999998
v -4.000000 0.000000 6.999998
v 5.000000 0.000000 6.999998
v -7.000000 0.000000 6.999998
v 8.000000 0.000000 6.999998
v -3.000000 0.000000 6.999998
v 4.000000 0.000000 6.999998
v 1.000000 0.000000 6.999998
v -7.999999 0.000000 3.999998
v -8.000000 1.000000 3.999999
v -7.999999 3.000000 3.999998
v -7.999999 4.000000 3.999998
v -7.999999 6.000000 3.999998
v -7.999999 7.000000 3.999998
v 0.000000 0.000000 3.999999
v -4.000000 0.000000 3.999999
v 5.000000 0.000000 3.999999
v -6.999999 0.000000 3.999999
v 8.000000 0.000000 3.999999
v -3.000000 0.000000 3.999999
v 4.000000 0.000000 3.999999
v 1.000000 0.000000 3.999999
v 9.000001 0.000000 3.999999
v 9.000000 1.000000 4.000000
v -7.999998 0.000000 2.999998
v -8.000000 1.000000 2.999999
v -7.999998 3.000000 2.999999
v -7.999998 4.000000 2.999999
v -7.999998 6.000000 3.000000
v -7.999998 7.000000 3.000000
v 0.000001 0.000000 3.000000
v -3.999999 0.000000 2.999999
v 5.000000 0.000000 3.000000
v -6.999998 0.000000 2.999999
v 8.000000 0.000000 3.000000
v -3.000000 0.000000 3.000000
v 4.000000 0.000000 3.000000
v 1.000000 0.000000 3.000000
v 9.000001 0.000000 3.000000
v 9.000000 1.000000 3.000001
v -7.999997 0.000000 -1.000001
v -7.999998 1.000000 -1.000001
v -7.999997 3.000000 -1.000001
v -7.999997 4.000000 -1.000001
v -7.999997 6.000000 -1.000001
v -7.999997 7.000000 -1.000001
v 0.000001 0.000000 -1.000000
v -3.999998 0.000000 -1.000001
v 5.000000 0.000000 -0.999999
v -6.999997 0.000000 -1.000001
v 8.000000 0.000000 -0.999999
v -2.999999 0.000000 -1.000000
v 4.000000 0.000000 -1.000000
v 1.000001 0.000000 -1.000000
v 9.000001 0.000000 -0.999999
v 9.000000 1.000000 -0.999998
v -7.999997 0.000000 -4.000004
v -7.999998 1.000000 -4.000003
v -7.999997 3.000000 -4.000003
v -7.999997 4.000000 -4.000003
v -7.999997 6.000000 -4.000003
v -7.999997 7.000000 -4.000003
v 0.000001 0.000000 -4.000003
v -3.999998 0.000000 -4.000003
v 5.000000 0.000000 -4.000002
v -6.999997 0.000000 -4.000004
v 8.000000 0.000000 -4.000001
v -2.999999 0.000000 -4.000003
v 4.000000 0.000000 -4.000003
v 1.000001 0.000000 -4.000003
v 9.000001 0.000000 -4.000001
v 9.000000 1.000000 -4.000000
v -7.999997 0.000000 -5.000003
v -7.999998 1.000000 -5.000003
v -7.999997 3.000000 -5.000003
v -7.999997 4.000000 -5.000003
v -7.999997 6.000000 -5.000001
v -7.999997 7.000000 -5.000001
v 0.000001 0.000000 -5.000002
v -3.999998 0.000000 -5.000003
v 5.000000 0.000000 -5.000001
v -6.999997 0.000000 -5.000003
v 8.000000 0.000000 -5.000000
v -2.999998 0.000000 -5.000002
v 4.000000 0.000000 -5.000002
v 1.000001 0.000000 -5.000002
v 9.000001 0.000000 -5.000000
v 9.000000 1.000000 -5.000000
v -7.999997 0.000000 -7.999998
v -7.999998 1.000000 -7.999997
v -7.999997 3.000000 -7.999997
v -7.999998 4.000000 -8.000003
v 0.000001 0.000000 -7.999997
v -3.999998 0.000000 -7.999997
v 5.000000 0.000000 -7.999995
v -6.999997 0.000000 -7.999998
v 8.000000 0.000000 -7.999995
v -2.999998 0.000000 -7.999997
v 4.000000 0.000000 -7.999997
v 1.000001 0.000000 -7.999997
v 9.000001 0.000000 -7.999995
v 9.000000 1.000000 -7.999993
v 0.000001 1.000000 -8.000007
v -3.999999 4.000000 -8.000004
v -3.999999 1.000000 -8.000009
v -3.999998 3.000000 -8.000009
v 8.000003 1.000000 -8.000000
v 5.000000 1.000000 -8.000007
v -6.999999 1.000000 -8.000003
v -6.999997 3.000000 -8.000003
v -6.999997 4.000000 -8.000003
v -3.000000 1.000000 -8.000009
v -3.000000 3.000000 -8.000009
v 4.000000 1.000000 -8.000007
v 1.000000 1.000000 -8.000007
v 8.000006 1.000000 0.000001
v 8.000006 1.000000 4.000000
v 8.000006 1.000000 3.000001
v 8.000006 1.000000 -4.000000
v 8.000006 1.000000 -0.999998
v 8.000006 1.000000 -5.000000
v -7.000001 1.000000 3.000000
v -7.000000 1.000000 -0.000002
v -7.000000 3.000000 3.000000
v -7.000000 3.000000 -0.000002
v -7.000000 4.000000 3.000000
v -7.000000 4.000000 -0.000002
v -7.000000 6.000000 3.000000
v -6.999999 6.000000 -0.000001
v 5.000002 1.000000 -0.000002
v 5.000002 1.000000 -1.000001
v -7.000000 6.000000 3.999998
v -7.000001 4.000000 6.999997
v -7.000001 1.000000 3.999999
v -7.000000 3.000000 3.999998
v -7.000000 4.000000 3.999998
v -7.000000 3.000000 -1.000000
v -7.000000 7.000000 3.999998
v -6.999998 7.000000 -1.000000
v -6.999998 6.000000 -1.000000
v -7.000000 4.000000 -1.000000
v -6.999998 7.000000 -0.000000
v -7.000000 1.000000 -1.000000
v -7.000000 1.000000 -4.000003
v -6.999998 3.000000 -4.000003
v -6.999998 4.000000 -4.000003
v -6.999998 6.000000 -4.000003
v -6.999998 7.000000 -4.000003
v -7.000000 6.000000 -5.000001
v -7.000000 4.000000 -5.000000
v -6.999998 3.000000 -5.000001
v -7.000000 1.000000 -5.000001
v 5.000002 1.000000 3.999999
v 5.000002 1.000000 3.000000
v 1.000000 4.000000 6.999998
v -3.000000 7.000000 6.999998
v -8.000000 7.000000 8.000000
v -7.000000 7.000000 3.000000
v -6.999999 7.000000 -5.000001
v -8.000000 4.000000 -8.999995
v -3.000000 4.000000 -8.999995
v -3.000000 4.000000 -8.000007
v 5.000002 1.000000 -4.000005
v 5.000002 1.000000 -5.000005
v 4.000001 1.000000 3.999999
v 4.000001 1.000000 3.000000
v 4.000001 1.000000 -0.000002
v 4.000002 1.000000 -1.000001
v 4.000002 1.000000 -4.000006
v 4.000002 1.000000 -5.000004
v 1.000001 1.000000 3.999997
v 1.000001 1.000000 2.999999
v 1.000002 1.000000 -0.000003
v 1.000002 1.000000 -1.000002
v 1.000002 1.000000 -4.000006
v 1.000002 1.000000 -5.000005
v 0.000001 1.000000 3.999997
v 0.000001 1.000000 2.999999
v 0.000002 1.000000 -0.000003
v 0.000002 1.000000 -1.000002
v 0.000002 1.000000 -4.000007
v 0.000002 1.000000 -5.000005
v -3.000000 1.000000 3.999997
v -3.000000 1.000000 2.999998
v -2.999999 1.000000 -0.000004
v -2.999999 1.000000 -1.000003
v -2.999999 1.000000 -4.000008
v -2.999999 1.000000 -5.000006
v -4.000000 1.000000 3.999997
v -4.000000 1.000000 2.999998
v -3.999999 1.000000 -0.000004
v -3.999999 1.000000 -1.000003
v -3.999999 1.000000 -4.000008
v -3.999999 1.000000 -5.000007
vn 0.0000 -1.0000 0.0000
vn 0.0000 0.0000 -1.0000
vn -1.0000 -0.0000 -0.0000
vn -0.0000 -0.0000 1.0000
vn 1.0000 0.0000 0.0000
vn 0.0000 1.0000 0.0000
usemtl Material
s off
f 122//1 38//1 3//1 113//1
f 39//2 37//2 4//2 8//2
f 41//2 39//2 8//2 10//2
f 207//3 208//3 8//3 4//3
f 38//4 40//4 7//4 3//4
f 111//5 112//5 6//5 2//5
f 43//2 41//2 10//2 12//2
f 208//3 209//3 10//3 8//3
f 40//4 42//4 9//4 7//4
f 209//3 210//3 12//3 10//3
f 42//4 44//4 11//4 9//4
f 44//4 45//4 13//4 11//4
f 45//4 46//4 14//4 13//4
f 71//4 72//4 20//4 19//4
f 70//4 71//4 19//4 18//4
f 68//4 70//4 18//4 16//4
f 69//2 67//2 15//2 17//2
f 126//1 68//1 16//1 119//1
f 59//4 60//4 30//4 29//4
f 58//4 59//4 29//4 28//4
f 56//4 58//4 28//4 26//4
f 54//4 56//4 26//4 24//4
f 57//2 55//2 25//2 27//2
f 52//4 54//4 24//4 22//4
f 55//2 53//2 23//2 25//2
f 53//2 51//2 21//2 23//2
f 124//1 52//1 22//1 120//1
f 123//1 48//1 32//1 121//1
f 49//2 47//2 31//2 33//2
f 48//4 50//4 34//4 32//4
f 39//5 41//5 228//5 227//5
f 71//5 70//5 93//5 94//5
f 46//6 30//6 76//6 87//6
f 29//1 45//1 86//1 77//1
f 29//4 30//4 46//4 45//4
f 26//4 28//4 44//4 42//4
f 27//2 25//2 41//2 43//2
f 22//4 24//4 40//4 38//4
f 23//2 21//2 37//2 39//2
f 120//1 22//1 38//1 122//1
f 2//4 6//4 50//4 48//4
f 5//2 1//2 47//2 49//2
f 111//1 2//1 48//1 123//1
f 119//1 16//1 52//1 124//1
f 17//2 15//2 51//2 53//2
f 16//4 18//4 54//4 52//4
f 19//4 20//4 58//4 56//4
f 45//5 44//5 85//5 86//5
f 34//6 50//6 81//6 36//6
f 35//5 34//5 36//5 82//5
f 121//1 32//1 62//1 125//1
f 33//2 31//2 61//2 63//2
f 32//4 34//4 64//4 62//4
f 34//4 35//4 65//4 64//4
f 92//2 82//2 36//2 66//2
f 125//1 62//1 68//1 126//1
f 63//2 61//2 67//2 69//2
f 63//6 69//6 233//6 232//6
f 62//4 64//4 70//4 68//4
f 44//6 28//6 78//6 85//6
f 26//1 42//1 84//1 79//1
f 70//6 64//6 66//6 93//6
f 42//5 40//5 83//5 84//5
f 65//6 35//6 82//6 92//6
f 64//3 65//3 92//3 66//3
f 28//3 29//3 77//3 78//3
f 56//5 54//5 88//5 89//5
f 54//6 18//6 75//6 88//6
f 24//3 26//3 79//3 80//3
f 19//1 56//1 89//1 74//1
f 59//5 58//5 90//5 91//5
f 58//6 20//6 73//6 90//6
f 18//3 19//3 74//3 75//3
f 40//6 24//6 80//6 83//6
f 171//1 109//1 110//1 172//1
f 167//1 105//1 109//1 171//1
f 165//1 103//1 108//1 170//1
f 173//1 95//1 107//1 169//1
f 166//1 104//1 106//1 168//1
f 169//1 107//1 105//1 167//1
f 170//1 108//1 104//1 166//1
f 172//1 110//1 103//1 165//1
f 129//4 128//4 252//4 253//4
f 99//4 97//4 241//4 243//4
f 145//3 146//3 100//3 99//3
f 173//5 174//5 98//5 95//5
f 143//3 144//3 97//3 96//3
f 168//1 106//1 96//1 159//1
f 3//3 7//3 114//3 113//3
f 7//3 9//3 115//3 114//3
f 9//3 11//3 116//3 115//3
f 11//3 13//3 117//3 116//3
f 13//3 14//3 118//3 117//3
f 139//1 125//1 126//1 140//1
f 135//1 121//1 125//1 139//1
f 133//1 119//1 124//1 138//1
f 141//1 111//1 123//1 137//1
f 134//1 120//1 122//1 136//1
f 137//1 123//1 121//1 135//1
f 138//1 124//1 120//1 134//1
f 140//1 126//1 119//1 133//1
f 141//5 142//5 112//5 111//5
f 136//1 122//1 113//1 127//1
f 152//1 136//1 127//1 143//1
f 157//5 158//5 142//5 141//5
f 156//1 140//1 133//1 149//1
f 154//1 138//1 134//1 150//1
f 153//1 137//1 135//1 151//1
f 150//1 134//1 136//1 152//1
f 157//1 141//1 137//1 153//1
f 149//1 133//1 138//1 154//1
f 151//1 135//1 139//1 155//1
f 155//1 139//1 140//1 156//1
f 113//3 114//3 128//3 127//3
f 115//3 116//3 130//3 129//3
f 116//2 117//2 86//2 251//2
f 117//3 118//3 132//3 131//3
f 109//1 155//1 156//1 110//1
f 105//1 151//1 155//1 109//1
f 103//1 149//1 154//1 108//1
f 95//1 157//1 153//1 107//1
f 104//1 150//1 152//1 106//1
f 107//1 153//1 151//1 105//1
f 108//1 154//1 150//1 104//1
f 110//1 156//1 149//1 103//1
f 95//5 98//5 158//5 157//5
f 106//1 152//1 143//1 96//1
f 127//3 128//3 144//3 143//3
f 128//3 129//3 145//3 144//3
f 129//3 130//3 146//3 145//3
f 130//3 131//3 147//3 146//3
f 131//3 132//3 148//3 147//3
f 184//1 168//1 159//1 175//1
f 189//5 190//5 174//5 173//5
f 188//1 172//1 165//1 181//1
f 186//1 170//1 166//1 182//1
f 185//1 169//1 167//1 183//1
f 182//1 166//1 168//1 184//1
f 189//1 173//1 169//1 185//1
f 181//1 165//1 170//1 186//1
f 183//1 167//1 171//1 187//1
f 187//1 171//1 172//1 188//1
f 101//3 102//3 164//3 163//3
f 100//3 101//3 163//3 162//3
f 99//3 100//3 162//3 161//3
f 97//3 99//3 161//3 160//3
f 96//3 97//3 160//3 159//3
f 203//1 187//1 188//1 204//1
f 199//1 183//1 187//1 203//1
f 197//1 181//1 186//1 202//1
f 205//1 189//1 185//1 201//1
f 198//1 182//1 184//1 200//1
f 201//1 185//1 183//1 199//1
f 202//1 186//1 182//1 198//1
f 204//1 188//1 181//1 197//1
f 205//5 206//5 190//5 189//5
f 200//1 184//1 175//1 191//1
f 114//2 115//2 84//2 83//2
f 163//3 164//3 180//3 179//3
f 161//3 162//3 178//3 177//3
f 101//4 100//4 245//4 247//4
f 159//3 160//3 176//3 175//3
f 214//1 200//1 191//1 207//1
f 219//5 220//5 206//5 205//5
f 206//6 220//6 225//6 239//6
f 218//1 204//1 197//1 211//1
f 216//1 202//1 198//1 212//1
f 215//1 201//1 199//1 213//1
f 212//1 198//1 200//1 214//1
f 219//1 205//1 201//1 215//1
f 211//1 197//1 202//1 216//1
f 213//1 199//1 203//1 217//1
f 217//1 203//1 204//1 218//1
f 179//3 180//3 196//3 195//3
f 178//3 179//3 195//3 194//3
f 177//3 178//3 194//3 193//3
f 176//3 177//3 193//3 192//3
f 175//3 176//3 192//3 191//3
f 61//1 217//1 218//1 67//1
f 31//1 213//1 217//1 61//1
f 15//1 211//1 216//1 51//1
f 1//1 219//1 215//1 47//1
f 21//1 212//1 214//1 37//1
f 47//1 215//1 213//1 31//1
f 51//1 216//1 212//1 21//1
f 67//1 218//1 211//1 15//1
f 1//5 5//5 220//5 219//5
f 37//1 214//1 207//1 4//1
f 193//3 194//3 210//3 209//3
f 191//3 192//3 208//3 207//3
f 224//4 223//4 230//4 231//4
f 53//5 55//5 231//5 230//5
f 17//6 53//6 230//6 221//6
f 25//3 23//3 223//3 224//3
f 23//6 39//6 227//6 223//6
f 41//1 25//1 224//1 228//1
f 27//6 43//6 229//6 222//6
f 49//6 33//6 226//6 225//6
f 158//6 98//6 234//6 236//6
f 174//6 190//6 237//6 238//6
f 112//6 142//6 235//6 81//6
f 144//2 145//2 242//2 240//2
f 131//4 130//4 254//4 250//4
f 146//2 147//2 246//2 244//2
f 162//2 163//2 258//2 259//2
f 179//4 178//4 264//4 265//4
f 160//2 161//2 255//2 261//2
f 97//6 144//6 240//6 241//6
f 194//2 195//2 267//2 268//2
f 128//6 114//6 83//6 252//6
f 177//4 176//4 262//4 263//4
f 115//1 129//1 253//1 84//1
f 145//1 99//1 243//1 242//1
f 192//2 193//2 269//2 270//2
f 130//6 116//6 251//6 254//6
f 117//1 131//1 250//1 86//1
f 100//6 146//6 244//6 245//6
f 209//4 208//4 227//4 228//4
f 132//6 118//6 87//6 256//6
f 176//6 160//6 261//6 262//6
f 161//1 177//1 263//1 255//1
f 178//6 162//6 259//6 264//6
f 208//6 192//6 270//6 227//6
f 163//1 179//1 265//1 258//1
f 112//6 81//6 50//6 6//6
f 193//1 209//1 228//1 269//1
f 180//6 164//6 257//6 266//6
f 210//6 194//6 268//6 229//6
f 236//6 235//6 142//6 158//6
f 98//6 174//6 238//6 234//6
f 239//6 237//6 190//6 206//6
f 49//6 225//6 220//6 5//6
f 232//6 226//6 33//6 63//6
f 69//6 17//6 221//6 233//6
f 73//6 20//6 72//6 273//6
f 273//5 72//5 71//5 94//5
f 76//6 30//6 60//6 274//6
f 274//5 60//5 59//5 91//5
f 87//6 118//6 275//6 46//6
f 132//6 256//6 276//6 148//6
f 148//2 276//2 246//2 147//2
f 257//6 164//6 102//6 260//6
f 260//4 102//4 101//4 247//4
f 180//6 266//6 277//6 196//6
f 196//2 277//2 267//2 195//2
f 229//6 43//6 278//6 210//6
f 27//6 222//6 280//6 279//6
f 279//5 280//5 231//5 55//5
f 73//2 273//2 94//2 74//2
f 74//2 94//2 93//2 75//2
f 80//2 79//2 89//2 88//2
f 253//5 252//5 240//5 242//5
f 243//5 241//5 261//5 255//5
f 263//5 262//5 270//5 269//5
f 235//6 271//6 36//6 81//6
f 271//6 283//6 66//6 36//6
f 283//6 289//6 93//6 66//6
f 289//6 295//6 75//6 93//6
f 295//6 301//6 88//6 75//6
f 301//6 307//6 80//6 88//6
f 307//6 252//6 83//6 80//6
f 236//6 272//6 271//6 235//6
f 272//6 284//6 283//6 271//6
f 284//6 290//6 289//6 283//6
f 290//6 296//6 295//6 289//6
f 296//6 302//6 301//6 295//6
f 302//6 308//6 307//6 301//6
f 308//6 240//6 252//6 307//6
f 234//6 248//6 272//6 236//6
f 248//6 285//6 284//6 272//6
f 285//6 291//6 290//6 284//6
f 291//6 297//6 296//6 290//6
f 297//6 303//6 302//6 296//6
f 303//6 309//6 308//6 302//6
f 309//6 241//6 240//6 308//6
f 238//6 249//6 248//6 234//6
f 249//6 286//6 285//6 248//6
f 286//6 292//6 291//6 285//6
f 292//6 298//6 297//6 291//6
f 298//6 304//6 303//6 297//6
f 304//6 310//6 309//6 303//6
f 310//6 261//6 241//6 309//6
f 237//6 281//6 249//6 238//6
f 281//6 287//6 286//6 249//6
f 287//6 293//6 292//6 286//6
f 293//6 299//6 298//6 292//6
f 299//6 305//6 304//6 298//6
f 305//6 311//6 310//6 304//6
f 311//6 262//6 261//6 310//6
f 239//6 282//6 281//6 237//6
f 282//6 288//6 287//6 281//6
f 288//6 294//6 293//6 287//6
f 294//6 300//6 299//6 293//6
f 300//6 306//6 305//6 299//6
f 306//6 312//6 311//6 305//6
f 312//6 270//6 262//6 311//6
f 225//6 226//6 282//6 239//6
f 226//6 232//6 288//6 282//6
f 232//6 233//6 294//6 288//6
f 233//6 221//6 300//6 294//6
f 221//6 230//6 306//6 300//6
f 230//6 223//6 312//6 306//6
f 223//6 227//6 270//6 312//6
f 90//2 73//2 74//2 89//2
f 85//2 78//2 79//2 84//2
f 90//2 89//2 79//2 78//2
f 91//2 90//2 78//2 77//2
f 91//2 77//2 76//2 274//2
f 87//2 76//2 77//2 86//2
f 256//5 87//5 86//5 250//5
f 256//5 250//5 246//5 276//5
f 250//5 254//5 244//5 246//5
f 254//5 251//5 84//5 253//5
f 244//5 254//5 253//5 242//5
f 245//5 244//5 242//5 243//5
f 245//5 243//5 255//5 259//5
f 247//5 245//5 259//5 258//5
f 247//5 258//5 257//5 260//5
f 258//5 265//5 266//5 257//5
f 265//5 264//5 268//5 267//5
f 265//5 267//5 277//5 266//5
f 255//5 263//5 264//5 259//5
f 263//5 269//5 268//5 264//5
f 269//5 228//5 229//5 268//5
f 228//4 224//4 222//4 229//4
f 222//4 224//4 231//4 280//4
